<?xml version="1.0" standalone="no"?><!DOCTYPE svg PUBLIC "-//W3C//DTD SVG 1.1//EN" "http://www.w3.org/Graphics/SVG/1.1/DTD/svg11.dtd"><svg class="icon" width="200px" height="200.00px" viewBox="0 0 1024 1024" version="1.1" xmlns="http://www.w3.org/2000/svg"><path fill="#333333" d="M540.68 390.8h2.64c-0.444-0.384-0.888-0.768-1.32-1.2-0.432 0.432-0.876 0.816-1.32 1.2z"  /><path fill="#333333" d="M842 32H242A120 120 0 0 0 122 152v58.8a60 60 0 0 0 0 120v121.2a60 60 0 0 0 0 120v120a60 60 0 0 0 0 120v60a120 120 0 0 0 120 120h600a120 120 0 0 0 120-120V152A120 120 0 0 0 842 32zM676.4 526.4a45.6 45.6 0 0 1 0 91.2h-88.8v89.4a45 45 0 0 1-45 45h-1.2a45 45 0 0 1-45-45V617.6h-88.8a45.6 45.6 0 0 1 0-91.2h88.8v-44.4h-88.8a45.6 45.6 0 0 1 0-91.2h73.704c-0.864-0.744-1.728-1.524-2.556-2.4L416 325.664a45.6 45.6 0 0 1 0-64.464 45.6 45.6 0 0 1 64.488 0L542 322.724 603.548 261.2a45.6 45.6 0 0 1 64.452 0 45.6 45.6 0 0 1 0 64.488L605.252 388.4c-0.828 0.828-1.692 1.608-2.556 2.4H676.4a45.6 45.6 0 0 1 0 91.2h-88.8v44.4z"  /></svg>