<?xml version="1.0" standalone="no"?><!DOCTYPE svg PUBLIC "-//W3C//DTD SVG 1.1//EN" "http://www.w3.org/Graphics/SVG/1.1/DTD/svg11.dtd"><svg class="icon" width="200px" height="200.00px" viewBox="0 0 1024 1024" version="1.1" xmlns="http://www.w3.org/2000/svg"><path fill="#333333" d="M988.172257 502.697946l-356.845358-364.470203C550.640292 59.02482 492.492781 1.909437 392.698904 1.909437H230.422578C33.22162 1.909437 0 74.390626 0 237.002394v176.145546C0 504.065516 17.636487 531.02986 87.047096 597.937558l402.491218 391.899005c44.949175 43.465491 130.177145 43.465491 175.242434 0.232229l323.855966-313.495981c22.526194-21.842409 35.505203-53.361018 35.505204-86.59554-0.012902-33.440947-13.211239-65.191785-35.969661-87.279325z m-43.013935 128.822477L621.186242 945.016404c-9.779413 9.340758-26.164445 14.901348-44.033161 14.901348s-34.485977-5.573491-44.149276-15.017462c0 0-402.478317-391.795792-402.478317-391.899005-29.364042-28.331914-48.019756-48.251984-56.896056-66.107799-6.605619-13.430566-11.04377-31.067053-11.04377-73.629432V237.002394c0-75.216329 7.857074-116.411138 26.164445-137.801991 20.036185-23.326093 66.340028-34.705304 141.672471-34.705304h162.263424c34.253748 0 61.785763 8.424745 92.169031 28.215799 31.750838 20.707068 64.404788 52.690135 102.180673 89.782235l356.406703 364.134762 1.251455 1.251455c10.579312 10.127756 16.836588 25.945118 16.836588 42.214035 0.012902 15.933476-6.12826 31.518609-16.37213 41.427038z m0 0M439.338188 37.079199L84.750611 54.689883l-28.641552 39.646617-26.422477 370.004989 546.202142 537.390349 427.275192-420.669573L439.338188 37.079199zM277.539221 413.909134c-65.55303 0-118.707623-53.141691-118.707622-118.707622S211.97329 176.493889 277.539221 176.493889s118.707623 53.141691 118.707623 118.707623-53.154592 118.707623-118.707623 118.707622z" /></svg>